<?xml version="1.0" encoding="UTF-8" standalone="no"?>
<svg
   xmlns:dc="http://purl.org/dc/elements/1.1/"
   xmlns:cc="http://creativecommons.org/ns#"
   xmlns:rdf="http://www.w3.org/1999/02/22-rdf-syntax-ns#"
   xmlns:svg="http://www.w3.org/2000/svg"
   xmlns="http://www.w3.org/2000/svg"
   xmlns:sodipodi="http://sodipodi.sourceforge.net/DTD/sodipodi-0.dtd"
   xmlns:inkscape="http://www.inkscape.org/namespaces/inkscape"
   viewBox="0 0 18.342 18.853"
   version="1.1"
   id="svg20"
   sodipodi:docname="transaction_pending_icon_dark.svg"
   inkscape:version="0.92.3 (2405546, 2018-03-11)">
  <metadata
     id="metadata24">
    <rdf:RDF>
      <cc:Work
         rdf:about="">
        <dc:format>image/svg+xml</dc:format>
        <dc:type
           rdf:resource="http://purl.org/dc/dcmitype/StillImage" />
      </cc:Work>
    </rdf:RDF>
  </metadata>
  <sodipodi:namedview
     pagecolor="#ffffff"
     bordercolor="#666666"
     borderopacity="1"
     objecttolerance="10"
     gridtolerance="10"
     guidetolerance="10"
     inkscape:pageopacity="0"
     inkscape:pageshadow="2"
     inkscape:window-width="768"
     inkscape:window-height="480"
     id="namedview22"
     showgrid="false"
     inkscape:zoom="12.517901"
     inkscape:cx="9.1709995"
     inkscape:cy="9.4265003"
     inkscape:window-x="537"
     inkscape:window-y="92"
     inkscape:window-maximized="0"
     inkscape:current-layer="g18" />
  <defs
     id="defs4">
    <style
       id="style2">.a{fill:#6aeac0;}</style>
  </defs>
  <g
     transform="translate(34.55 55.562) rotate(180)"
     id="g18">
    <path
       style="fill:#45987d;fill-opacity:1"
       inkscape:connector-curvature="0"
       id="path6"
       d="m 26.165,43.866 v 0.817 l 0.011,3.889 c 0,0.69 0,1.381 0,2.071 a 0.836,0.836 0 0 1 -1.668,0.1 1.591,1.591 0 0 1 -0.007,-0.187 q 0,-4.277 0,-8.55 a 1.1,1.1 0 0 1 0.093,-0.511 0.811,0.811 0 0 1 1.291,-0.223 q 1.226,1.198 2.437,2.414 a 0.8,0.8 0 0 1 -0.007,1.135 0.8,0.8 0 0 1 -1.127,0.015 c -0.31,-0.295 -0.612,-0.6 -0.918,-0.907 a 0.4,0.4 0 0 1 -0.056,-0.1 0.407,0.407 0 0 1 -0.049,0.037 z"
       class="a" />
    <path
       style="fill:#45987d;fill-opacity:1"
       inkscape:connector-curvature="0"
       id="path8"
       d="m 24.44,43.866 v 0.817 l -0.011,3.889 c 0,0.69 0,1.381 0,2.071 a 0.836,0.836 0 0 0 1.664,0.101 1.591,1.591 0 0 0 0.011,-0.183 q 0,-4.277 0,-8.55 a 1.1,1.1 0 0 0 -0.093,-0.512 0.811,0.811 0 0 0 -1.292,-0.227 q -1.226,1.2 -2.437,2.415 a 0.808,0.808 0 0 0 1.135,1.149 c 0.31,-0.295 0.612,-0.6 0.918,-0.907 a 0.4,0.4 0 0 0 0.056,-0.1 0.407,0.407 0 0 0 0.049,0.037 z"
       class="a" />
    <path
       class="a"
       d="m 25.786,36.709 c 0.192,0.018 0.384,0.033 0.572,0.054 a 8.642,8.642 0 0 1 3.97,1.44 9.218,9.218 0 0 1 4.013,5.978 9.494,9.494 0 0 1 -0.923,6.481 0.923,0.923 0 0 0 -0.047,0.1 0.812,0.812 0 0 1 -0.919,0.5 0.847,0.847 0 0 1 -0.666,-0.85 0.325,0.325 0 0 1 0.029,-0.13 c 0.159,-0.38 0.322,-0.76 0.478,-1.143 a 7.694,7.694 0 0 0 0.59,-3.456 7.687,7.687 0 0 0 -2.4,-5.236 7.093,7.093 0 0 0 -4.071,-1.979 7.2,7.2 0 0 0 -5.945,1.82 7.447,7.447 0 0 0 -2.5,4.614 7.65,7.65 0 0 0 1.925,6.492 7.156,7.156 0 0 0 4.429,2.377 7.222,7.222 0 0 0 5.453,-1.39 0.387,0.387 0 0 0 0.058,-0.051 0.8,0.8 0 0 1 0.9,-0.17 0.871,0.871 0 0 1 0.5,0.8 0.711,0.711 0 0 1 -0.275,0.572 8.448,8.448 0 0 1 -4.48,1.954 8.725,8.725 0 0 1 -6.846,-2 9.249,9.249 0 0 1 -3.231,-5.44 9.4,9.4 0 0 1 -0.127,-3 9.343,9.343 0 0 1 2.305,-5.229 8.962,8.962 0 0 1 4.874,-2.894 8.521,8.521 0 0 1 1.419,-0.2 1.044,1.044 0 0 0 0.105,-0.014 c 0.271,0 0.542,0 0.81,0 z"
       id="path12"
       inkscape:connector-curvature="0"
       style="fill:#45987d;fill-opacity:1" />
  </g>
</svg>
